<?xml version="1.0" encoding="UTF-8"?><svg id="Ebene_1" xmlns="http://www.w3.org/2000/svg" xmlns:xlink="http://www.w3.org/1999/xlink" viewBox="0 0 1761.5 842"><defs><style>.cls-1{isolation:isolate;opacity:.99;}.cls-2{fill:none;}.cls-2,.cls-3{stroke-width:0px;}.cls-4{clip-path:url(#clippath-1);}.cls-3{fill:#fff;}.cls-5{clip-path:url(#clippath);}</style><clipPath id="clippath"><rect class="cls-2" x="1166.5" width="595" height="842"/></clipPath><clipPath id="clippath-1"><rect class="cls-2" x="1166.5" width="595" height="842"/></clipPath></defs><g id="text1" class="cls-1" text-rendering="geometricPrecision"><path class="cls-3" d="m416.52,509.92V243.2h45.82v266.72h-45.82Z"/><path class="cls-3" d="m635.68,509.92h-111.53V243.63h111.53c36.74,0,66.57,30.26,66.57,67v21.18c0,16.86-6.48,32.42-16.86,44.52,10.38,11.67,16.86,27.23,16.86,44.53v22.05c0,37.18-29.83,67-66.57,67Zm20.75-200.15c0-12.1-9.51-22.48-21.61-22.48h-64.84v67h64.84c12.1,0,21.61-9.51,21.61-21.61v-22.91Zm0,110.23c0-12.54-9.51-22.91-21.61-22.91h-64.84v69.17h64.84c12.1,0,21.61-9.94,21.61-22.48v-23.78Z"/><path class="cls-3" d="m764.93,509.92V243.2h45.82v266.72h-45.82Z"/><path class="cls-3" d="m979.77,374.61l66.57,135.3h-50.14l-41.07-87.32-40.63,87.32h-50.14l65.27-135.3-67-130.98h50.58l41.93,85.59,41.93-85.59h50.58l-67.87,130.98Z"/></g><rect class="cls-3" x="1141.5" y="210" width="50" height="333"/><g class="cls-5"><g class="cls-4"><path class="cls-3" d="m1659.3,323.4v-33.2c0-25.6-21.2-46.8-46.8-46.8h-33.2v33.6h30c9.2,0,16.4,7.2,16.4,16.4v30h33.6Zm0,93.2v-80h-33.6v80h33.6Zm-93.6-139.6v-33.6h-32.8c-25.6,0-46.8,21.2-46.8,46.8v33.2h32.8v-30c0-9.2,8-16.4,17.2-16.4,0,0,29.6,0,29.6,0Zm93.6,186v-33.2h-33.6v30c0,7.2-4,13.2-10.4,15.6-2,.8-4,.8-6,.8h-30v33.6h33.2c10.4,0,20.4-3.2,28-9.2,8.4-6,14.4-15.2,17.2-25.2,1.2-4,1.6-8,1.6-12.4m-200-139.6v-33.2c0-25.6-21.2-46.8-46.8-46.8h-33.2v33.6h30c9.2,0,16.8,7.2,16.8,16.4v30h33.2Zm60,13.2h-33.2v80h32.8c0-19.6.4-4.8.4-80m46.4,173.2v-33.6h-29.6c-2,0-4,0-6-.8-6.4-2.4-11.2-8.4-11.2-15.6v-30h-32.8v33.2c0,4.4.4,8.4,1.6,12.4,2.8,10,8.8,19.2,17.2,25.2,7.6,6,17.6,9.2,28,9.2h32.8Zm-199.6-232.8v-33.6h-80v80h33.6v-46.4h46.4Zm93.2,139.6v-10c0-2.4,0-4.4-.4-6.4-1.6-10.8-7.2-20.4-15.2-27.2,9.6-8,15.6-19.6,15.6-32.8v-3.6h-33.2v3.6c0,9.2-7.6,16.4-16.8,16.4h-30v33.6h30c6.8,0,12.8,4,15.2,10,.8,2,1.6,4,1.6,6.4v10h33.2Zm-93.2-26.4v-33.6h-46.4v-20h-33.6v80h33.6v-26.4h46.4Zm93.2,72.8v-33.2h-33.2v33.2c0,5.6-3.6,10.4-8.4,12.4-1.6.8-3.2.8-5.2.8h-33.2v33.6h33.2c10.4,0,20.4-3.2,28-9.2,8.4-6,14.4-15.2,17.2-25.2,1.2-4,1.6-8,1.6-12.4m-93.2,46.8v-33.6h-46.4v-46.4h-33.6v80h80Z"/></g></g><rect class="cls-2" x="1050.5" y="243" width="94" height="100"/><g id="Layer_8"><path class="cls-3" d="m349.9,466.4h-16.6v-172.2c0-9.4-7.2-16.7-16.7-16.7h-16.7v-16.7c0-9.4-7.2-16.7-16.7-16.7H72.2c-9.4,0-16.7,7.2-16.7,16.7v16.7h-16.6c-9.4,0-16.7,7.2-16.7,16.7v172.2H5.6c-3.3,0-5.6,2.2-5.6,5.6v22.2c0,9.4,7.2,16.7,16.7,16.7h322.1c9.4,0,16.7-7.2,16.7-16.7v-22.2c0-3.4-2.2-5.6-5.6-5.6Zm-33.3-177.8c3.3,0,5.6,2.2,5.6,5.6v172.2h-22.2v-177.8h16.6Zm-105.5,183.3v5.6h-66.7v-5.6c0-3.3-2.2-5.6-5.6-5.6h-72.1v-166.6h222.2v166.6h-72.2c-3.4.1-5.6,2.3-5.6,5.6Zm-144.4-211.1c0-3.3,2.2-5.6,5.6-5.6h211c3.3,0,5.6,2.2,5.6,5.6v27.8H66.7v-27.8Zm-33.4,33.4c0-3.3,2.2-5.6,5.6-5.6h16.7v177.8h-22.3v-172.2Zm311.1,199.9c0,3.3-2.2,5.6-5.6,5.6H16.7c-3.3,0-5.6-2.2-5.6-5.6v-16.7h122.2v5.6c0,3.3,2.2,5.6,5.6,5.6h77.8c3.3,0,5.6-2.2,5.6-5.6v-5.6h122.2v16.7h-.1Z"/><rect class="cls-3" x="77.8" y="266.4" width="11.1" height="11.1"/><rect class="cls-3" x="100" y="266.4" width="11.1" height="11.1"/><rect class="cls-3" x="122.2" y="266.4" width="11.1" height="11.1"/><path class="cls-3" d="m152.2,387.5l6.7-8.9-38.3-28.9,38.3-28.9-6.7-8.9-44.4,33.3c-1.7,1.1-2.2,2.8-2.2,4.4s.6,3.3,2.2,4.4l44.4,33.5Z"/><path class="cls-3" d="m203.3,387.5l44.4-33.3c1.7-1.1,2.2-2.8,2.2-4.4s-.6-3.3-2.2-4.4l-44.4-33.5-6.7,8.9,38.3,28.9-38.3,28.9,6.7,8.9Z"/><rect class="cls-3" x="137.24" y="344.18" width="81.1" height="11.1" transform="translate(-207.33 424.57) rotate(-74.05)"/><rect class="cls-3" x="122.2" y="399.7" width="155.5" height="11.1"/><rect class="cls-3" x="77.8" y="399.7" width="22.2" height="11.1"/><rect class="cls-3" x="200" y="421.9" width="77.8" height="11.1"/><rect class="cls-3" x="77.8" y="421.9" width="100" height="11.1"/><rect class="cls-3" x="122.2" y="444.1" width="155.5" height="11.1"/><rect class="cls-3" x="77.8" y="444.1" width="22.2" height="11.1"/></g><rect class="cls-2" x="462.5" y="260" width="61" height="46"/></svg>