<?xml version="1.0" encoding="UTF-8"?><svg id="Ebene_1" xmlns="http://www.w3.org/2000/svg" xmlns:xlink="http://www.w3.org/1999/xlink" viewBox="0 0 1670.19 842"><defs><style>.cls-1{fill:#df242b;}.cls-1,.cls-2,.cls-3,.cls-4,.cls-5{stroke-width:0px;}.cls-6{clip-path:url(#clippath-2);}.cls-2{fill:none;}.cls-7{clip-path:url(#clippath-1);}.cls-3{fill:#fff;}.cls-8{isolation:isolate;opacity:.99;}.cls-4,.cls-5{fill:#e2001a;}.cls-9{clip-path:url(#clippath);}.cls-5{fill-rule:evenodd;}.cls-10{clip-path:url(#clippath-3);}</style><clipPath id="clippath"><rect class="cls-2" x="1075.19" width="595" height="842"/></clipPath><clipPath id="clippath-1"><rect class="cls-2" x="1075.19" width="595" height="842"/></clipPath><clipPath id="clippath-2"><rect class="cls-2" x="1075.19" width="595" height="842"/></clipPath><clipPath id="clippath-3"><rect class="cls-2" x="1075.19" width="595" height="842"/></clipPath></defs><g class="cls-8" text-rendering="geometricPrecision"><path class="cls-4" d="m325.22,509.92V243.2h45.82v266.72h-45.82Z"/><path class="cls-4" d="m544.38,509.92h-111.53V243.63h111.53c36.74,0,66.57,30.26,66.57,67v21.18c0,16.86-6.48,32.42-16.86,44.52,10.37,11.67,16.86,27.23,16.86,44.53v22.05c0,37.18-29.83,67-66.57,67Zm20.75-200.15c0-12.1-9.51-22.48-21.61-22.48h-64.84v67h64.84c12.1,0,21.61-9.51,21.61-21.61v-22.91Zm0,110.23c0-12.54-9.51-22.91-21.61-22.91h-64.84v69.17h64.84c12.1,0,21.61-9.94,21.61-22.48v-23.78Z"/><path class="cls-4" d="m673.63,509.92V243.2h45.82v266.72h-45.82Z"/><path class="cls-4" d="m888.47,374.61l66.57,135.3h-50.14l-41.07-87.32-40.63,87.32h-50.15l65.27-135.3-67-130.98h50.58l41.93,85.59,41.93-85.59h50.58l-67.87,130.98Z"/></g><rect class="cls-4" x="1050.19" y="210" width="50" height="333"/><g class="cls-9"><g class="cls-7"><path class="cls-3" d="m1567.97,323.45v-33.2c0-25.6-21.2-46.8-46.8-46.8h-33.2v33.6h30c9.2,0,16.4,7.2,16.4,16.4v30h33.6Zm0,93.2v-80h-33.6v80h33.6Zm-93.6-139.6v-33.6h-32.8c-25.6,0-46.8,21.2-46.8,46.8v33.2h32.8v-30c0-9.2,8-16.4,17.2-16.4h29.6Zm93.6,186v-33.2h-33.6v30c0,7.2-4,13.2-10.4,15.6-2,.8-4,.8-6,.8h-30v33.6h33.2c10.4,0,20.4-3.2,28-9.2,8.4-6,14.4-15.2,17.2-25.2,1.2-4,1.6-8,1.6-12.4m-200-139.6v-33.2c0-25.6-21.2-46.8-46.8-46.8h-33.2v33.6h30c9.2,0,16.8,7.2,16.8,16.4v30h33.2Zm60,13.2h-33.2v80h32.8c0-19.6.4-4.8.4-80m46.4,173.2v-33.6h-29.6c-2,0-4,0-6-.8-6.4-2.4-11.2-8.4-11.2-15.6v-30h-32.8v33.2c0,4.4.4,8.4,1.6,12.4,2.8,10,8.8,19.2,17.2,25.2,7.6,6,17.6,9.2,28,9.2h32.8Zm-199.6-232.8v-33.6h-80v80h33.6v-46.4h46.4Zm93.2,139.6v-10c0-2.4,0-4.4-.4-6.4-1.6-10.8-7.2-20.4-15.2-27.2,9.6-8,15.6-19.6,15.6-32.8v-3.6h-33.2v3.6c0,9.2-7.6,16.4-16.8,16.4h-30v33.6h30c6.8,0,12.8,4,15.2,10,.8,2,1.6,4,1.6,6.4v10h33.2Zm-93.2-26.4v-33.6h-46.4v-20h-33.6v80h33.6v-26.4h46.4Zm93.2,72.8v-33.2h-33.2v33.2c0,5.6-3.6,10.4-8.4,12.4-1.6.8-3.2.8-5.2.8h-33.2v33.6h33.2c10.4,0,20.4-3.2,28-9.2,8.4-6,14.4-15.2,17.2-25.2,1.2-4,1.6-8,1.6-12.4m-93.2,46.8v-33.6h-46.4v-46.4h-33.6v80h80Z"/></g></g><g id="ICON"><path class="cls-5" d="m31.89,297.78H13.67c-3.63,0-7.1,1.44-9.66,4.02-2.56,2.57-4,6.06-4,9.69v54.84c0,2.52,2.04,4.57,4.56,4.57s4.56-2.05,4.56-4.57v-54.84c0-1.21.48-2.38,1.33-3.23.85-.86,2.01-1.34,3.22-1.34h18.22v95.97c0,7.57,6.12,13.71,13.67,13.71h177.65c3.63,0,7.1-1.44,9.66-4.02,2.56-2.57,4-6.06,4-9.69v-41.13c0-2.52-2.04-4.57-4.56-4.57s-4.56,2.05-4.56,4.57v41.13c0,1.21-.48,2.38-1.33,3.23-.85.86-2.01,1.34-3.22,1.34H45.55c-2.51,0-4.56-2.05-4.56-4.57v-146.24c0-2.52,2.04-4.57,4.56-4.57h177.65c2.51,0,4.56,2.05,4.56,4.57v86.83c0,2.52,2.04,4.57,4.56,4.57s4.56-2.05,4.56-4.57v-36.56h13.67c1.21,0,2.37.48,3.22,1.34.86.85,1.33,2.02,1.33,3.23v114.25H9.11v-41.13c0-2.52-2.04-4.57-4.56-4.57s-4.56,2.05-4.56,4.57v63.98c0,3.64,1.44,7.12,4,9.69,2.56,2.57,6.04,4.02,9.66,4.02h18.22c2.51,0,4.56-2.05,4.56-4.57s-2.04-4.57-4.56-4.57H13.67c-1.21,0-2.37-.48-3.22-1.34-.86-.85-1.33-2.02-1.33-3.23v-13.71h245.97v13.71c0,1.21-.48,2.38-1.33,3.23-.85.86-2.01,1.34-3.22,1.34H50.11c-2.51,0-4.56,2.05-4.56,4.57s2.04,4.57,4.56,4.57h57.42c-.73,12.26-3.89,28.09-15.56,36.56h-7.69c-2.51,0-4.56,2.05-4.56,4.57s2.04,4.57,4.56,4.57h95.66c2.51,0,4.56-2.05,4.56-4.57s-2.04-4.57-4.56-4.57h-7.69c-11.67-8.47-14.84-24.3-15.56-36.56h93.86c3.63,0,7.1-1.44,9.66-4.02,2.56-2.57,4-6.06,4-9.69v-137.1c0-3.64-1.44-7.12-4-9.69-2.56-2.57-6.04-4.02-9.66-4.02h-13.67v-41.13c0-7.57-6.12-13.71-13.67-13.71H45.55c-7.55,0-13.67,6.14-13.67,13.71v41.13Zm115.67,164.52h-30.92c-.71,11.57-3.58,25.96-11.77,36.56h54.47c-8.2-10.6-11.07-25-11.77-36.56Zm-27.16-86.83h-4.25c-2.51,0-4.56,2.05-4.56,4.57s2.04,4.57,4.56,4.57h.83l-2.82,7.54c-.88,2.36.31,5,2.66,5.88,2.35.89,4.98-.31,5.86-2.67l4.02-10.74h10.77l4.02,10.74c.88,2.36,3.51,3.56,5.86,2.67,2.35-.88,3.55-3.52,2.66-5.88l-2.82-7.54h.83c2.51,0,4.56-2.05,4.56-4.57s-2.04-4.57-4.56-4.57h-4.25l-7.43-19.88c-.67-1.78-2.36-2.97-4.26-2.97s-3.6,1.18-4.26,2.97l-7.43,19.88h0Zm9.73,0h3.94l-1.97-5.26-1.97,5.26Zm-74.13-47.04l9.11,9.14c1.78,1.79,4.66,1.79,6.44,0l18.07-18.12c1.78-1.79,1.78-4.68,0-6.47-1.78-1.78-4.66-1.78-6.45,0l-14.84,14.9-5.89-5.91c-1.78-1.78-4.66-1.78-6.44,0-1.78,1.78-1.78,4.68,0,6.46h0Zm53.33,10.48h63.77c2.51,0,4.56-2.05,4.56-4.57s-2.04-4.57-4.56-4.57h-63.77c-2.51,0-4.56,2.05-4.56,4.57s2.04,4.57,4.56,4.57Zm0-18.28h95.66c2.51,0,4.56-2.05,4.56-4.57s-2.04-4.57-4.56-4.57h-95.66c-2.51,0-4.56,2.05-4.56,4.57s2.04,4.57,4.56,4.57Zm0-27.42h63.77c2.51,0,4.56-2.05,4.56-4.57s-2.04-4.57-4.56-4.57h-63.77c-2.51,0-4.56,2.05-4.56,4.57s2.04,4.57,4.56,4.57Zm-53.33-10.48l9.11,9.14c1.78,1.79,4.66,1.79,6.44,0l18.07-18.12c1.78-1.79,1.78-4.68,0-6.47-1.78-1.78-4.66-1.78-6.45,0l-14.84,14.9-5.89-5.91c-1.78-1.78-4.66-1.78-6.44,0-1.78,1.78-1.78,4.68,0,6.46h0Zm53.33-7.8h95.66c2.51,0,4.56-2.05,4.56-4.57s-2.04-4.57-4.56-4.57h-95.66c-2.51,0-4.56,2.05-4.56,4.57s2.04,4.57,4.56,4.57Z"/></g><rect class="cls-2" x="959.19" y="243" width="94" height="100"/><g class="cls-6"><g class="cls-10"><path class="cls-1" d="m1567.97,323.45v-33.2c0-25.6-21.2-46.8-46.8-46.8h-33.2v33.6h30c9.2,0,16.4,7.2,16.4,16.4v30h33.6Zm0,93.2v-80h-33.6v80h33.6Zm-93.6-139.6v-33.6h-32.8c-25.6,0-46.8,21.2-46.8,46.8v33.2h32.8v-30c0-9.2,8-16.4,17.2-16.4h29.6Zm93.6,186v-33.2h-33.6v30c0,7.2-4,13.2-10.4,15.6-2,.8-4,.8-6,.8h-30v33.6h33.2c10.4,0,20.4-3.2,28-9.2,8.4-6,14.4-15.2,17.2-25.2,1.2-4,1.6-8,1.6-12.4m-200-139.6v-33.2c0-25.6-21.2-46.8-46.8-46.8h-33.2v33.6h30c9.2,0,16.8,7.2,16.8,16.4v30h33.2Zm60,13.2h-33.2v80h32.8c0-19.6.4-4.8.4-80m46.4,173.2v-33.6h-29.6c-2,0-4,0-6-.8-6.4-2.4-11.2-8.4-11.2-15.6v-30h-32.8v33.2c0,4.4.4,8.4,1.6,12.4,2.8,10,8.8,19.2,17.2,25.2,7.6,6,17.6,9.2,28,9.2h32.8Zm-199.6-232.8v-33.6h-80v80h33.6v-46.4h46.4Zm93.2,139.6v-10c0-2.4,0-4.4-.4-6.4-1.6-10.8-7.2-20.4-15.2-27.2,9.6-8,15.6-19.6,15.6-32.8v-3.6h-33.2v3.6c0,9.2-7.6,16.4-16.8,16.4h-30v33.6h30c6.8,0,12.8,4,15.2,10,.8,2,1.6,4,1.6,6.4v10h33.2Zm-93.2-26.4v-33.6h-46.4v-20h-33.6v80h33.6v-26.4h46.4Zm93.2,72.8v-33.2h-33.2v33.2c0,5.6-3.6,10.4-8.4,12.4-1.6.8-3.2.8-5.2.8h-33.2v33.6h33.2c10.4,0,20.4-3.2,28-9.2,8.4-6,14.4-15.2,17.2-25.2,1.2-4,1.6-8,1.6-12.4m-93.2,46.8v-33.6h-46.4v-46.4h-33.6v80h80Z"/></g></g></svg>