<?xml version="1.0" encoding="UTF-8"?><svg id="Ebene_1" xmlns="http://www.w3.org/2000/svg" xmlns:xlink="http://www.w3.org/1999/xlink" viewBox="0 0 1771.56 846"><defs><style>.cls-1{fill:#df242b;}.cls-1,.cls-2,.cls-3{stroke-width:0px;}.cls-2{fill:none;}.cls-4{clip-path:url(#clippath-1);}.cls-5{isolation:isolate;opacity:.99;}.cls-3{fill:#e2001a;}.cls-6{clip-path:url(#clippath);}</style><clipPath id="clippath"><rect class="cls-2" x="1173.74" width="597.83" height="846"/></clipPath><clipPath id="clippath-1"><rect class="cls-2" x="1173.74" width="597.83" height="846"/></clipPath></defs><g class="cls-5" text-rendering="geometricPrecision"><path class="cls-3" d="m418.76,510.92V244.2h45.82v266.72h-45.82Z"/><path class="cls-3" d="m637.92,510.92h-111.53V244.63h111.53c36.74,0,66.57,30.26,66.57,67v21.18c0,16.86-6.48,32.42-16.86,44.52,10.37,11.67,16.86,27.23,16.86,44.53v22.05c0,37.18-29.83,67-66.57,67Zm20.75-200.15c0-12.1-9.51-22.48-21.61-22.48h-64.84v67h64.84c12.1,0,21.61-9.51,21.61-21.61v-22.91Zm0,110.23c0-12.54-9.51-22.91-21.61-22.91h-64.84v69.17h64.84c12.1,0,21.61-9.94,21.61-22.48v-23.78Z"/><path class="cls-3" d="m767.18,510.92V244.2h45.82v266.72h-45.82Z"/><path class="cls-3" d="m982.01,375.61l66.57,135.3h-50.14l-41.07-87.32-40.63,87.32h-50.15l65.27-135.3-67-130.98h50.58l41.93,85.59,41.93-85.59h50.58l-67.87,130.98Z"/></g><g id="Layer_8"><path class="cls-3" d="m350.92,466.69h-16.71v-172.68c0-9.47-7.24-16.71-16.71-16.71h-16.71v-16.71c0-9.47-7.24-16.71-16.71-16.71H72.41c-9.47,0-16.71,7.24-16.71,16.71v16.71h-16.71c-9.47,0-16.71,7.24-16.71,16.71v172.68H5.57c-3.34,0-5.57,2.23-5.57,5.57v22.28c0,9.47,7.24,16.71,16.71,16.71h323.07c9.47,0,16.71-7.24,16.71-16.71v-22.28c0-3.34-2.23-5.57-5.57-5.57Zm-33.42-178.25c3.34,0,5.57,2.23,5.57,5.57v172.68h-22.28v-178.25h16.71Zm-105.83,183.82v5.57h-66.84v-5.57c0-3.34-2.23-5.57-5.57-5.57h-72.41v-167.11h222.81v167.11h-72.41c-3.34,0-5.57,2.23-5.57,5.57Zm-144.83-211.67c0-3.34,2.23-5.57,5.57-5.57h211.67c3.34,0,5.57,2.23,5.57,5.57v27.85H66.84v-27.85Zm-33.42,33.42c0-3.34,2.23-5.57,5.57-5.57h16.71v178.25h-22.28v-172.68Zm311.93,200.53c0,3.34-2.23,5.57-5.57,5.57H16.71c-3.34,0-5.57-2.23-5.57-5.57v-16.71h122.54v5.57c0,3.34,2.23,5.57,5.57,5.57h77.98c3.34,0,5.57-2.23,5.57-5.57v-5.57h122.54v16.71Z"/><rect class="cls-3" x="77.98" y="266.16" width="11.14" height="11.14"/><rect class="cls-3" x="100.26" y="266.16" width="11.14" height="11.14"/><rect class="cls-3" x="122.54" y="266.16" width="11.14" height="11.14"/><path class="cls-3" d="m152.62,387.6l6.68-8.91-38.43-28.97,38.43-28.97-6.68-8.91-44.56,33.42c-1.67,1.11-2.23,2.79-2.23,4.46s.56,3.34,2.23,4.46l44.56,33.42Z"/><path class="cls-3" d="m203.87,387.6l44.56-33.42c1.67-1.11,2.23-2.79,2.23-4.46s-.56-3.34-2.23-4.46l-44.56-33.42-6.68,8.91,38.43,28.97-38.43,28.97,6.68,8.91Z"/><rect class="cls-3" x="137.59" y="344.15" width="81.32" height="11.14" transform="translate(-206.99 425) rotate(-74.05)"/><rect class="cls-3" x="122.54" y="399.85" width="155.97" height="11.14"/><rect class="cls-3" x="77.98" y="399.85" width="22.28" height="11.14"/><rect class="cls-3" x="200.53" y="422.13" width="77.98" height="11.14"/><rect class="cls-3" x="77.98" y="422.13" width="100.26" height="11.14"/><rect class="cls-3" x="122.54" y="444.41" width="155.97" height="11.14"/><rect class="cls-3" x="77.98" y="444.41" width="22.28" height="11.14"/></g><rect class="cls-3" x="1146.74" y="211" width="50" height="333"/><g class="cls-6"><g class="cls-4"><path class="cls-1" d="m1668.86,324.98v-33.36c0-25.72-21.3-47.02-47.02-47.02h-33.36v33.76h30.14c9.24,0,16.48,7.23,16.48,16.48v30.14h33.76Zm0,93.64v-80.38h-33.76v80.38h33.76Zm-94.04-140.26v-33.76h-32.96c-25.72,0-47.02,21.3-47.02,47.02v33.36h32.96v-30.14c0-9.24,8.04-16.48,17.28-16.48h29.74Zm94.04,186.88v-33.36h-33.76v30.14c0,7.23-4.02,13.26-10.45,15.67-2.01.8-4.02.8-6.03.8h-30.14v33.76h33.36c10.45,0,20.5-3.22,28.13-9.24,8.44-6.03,14.47-15.27,17.28-25.32,1.2-4.02,1.61-8.04,1.61-12.46m-200.95-140.26v-33.36c0-25.72-21.3-47.02-47.02-47.02h-33.36v33.76h30.14c9.24,0,16.88,7.23,16.88,16.48v30.14h33.36Zm60.29,13.26h-33.36v80.38h32.96c0-19.69.4-4.82.4-80.38m46.62,174.02v-33.76h-29.74c-2.01,0-4.02,0-6.03-.8-6.43-2.41-11.25-8.44-11.25-15.67v-30.14h-32.96v33.36c0,4.42.4,8.44,1.61,12.46,2.81,10.05,8.84,19.29,17.28,25.32,7.64,6.03,17.68,9.24,28.13,9.24h32.96Zm-200.55-233.91v-33.76h-80.38v80.38h33.76v-46.62h46.62Zm93.64,140.26v-10.05c0-2.41,0-4.42-.4-6.43-1.61-10.85-7.23-20.5-15.27-27.33,9.65-8.04,15.67-19.69,15.67-32.96v-3.62h-33.36v3.62c0,9.24-7.64,16.48-16.88,16.48h-30.14v33.76h30.14c6.83,0,12.86,4.02,15.27,10.05.8,2.01,1.61,4.02,1.61,6.43v10.05h33.36Zm-93.64-26.53v-33.76h-46.62v-20.1h-33.76v80.38h33.76v-26.53h46.62Zm93.64,73.15v-33.36h-33.36v33.36c0,5.63-3.62,10.45-8.44,12.46-1.61.8-3.22.8-5.22.8h-33.36v33.76h33.36c10.45,0,20.5-3.22,28.13-9.24,8.44-6.03,14.47-15.27,17.28-25.32,1.2-4.02,1.61-8.04,1.61-12.46m-93.64,47.02v-33.76h-46.62v-46.62h-33.76v80.38h80.38Z"/></g></g></svg>