<?xml version="1.0" encoding="UTF-8"?><svg id="Ebene_1" xmlns="http://www.w3.org/2000/svg" xmlns:xlink="http://www.w3.org/1999/xlink" viewBox="0 0 1670.3 842"><defs><style>.cls-1{isolation:isolate;opacity:.99;}.cls-2{fill:none;}.cls-2,.cls-3,.cls-4{stroke-width:0px;}.cls-5{clip-path:url(#clippath-1);}.cls-3,.cls-4{fill:#fff;}.cls-4{fill-rule:evenodd;}.cls-6{clip-path:url(#clippath);}</style><clipPath id="clippath"><rect class="cls-2" x="1075.3" width="595" height="842"/></clipPath><clipPath id="clippath-1"><rect class="cls-2" x="1075.3" width="595" height="842"/></clipPath></defs><g class="cls-1" text-rendering="geometricPrecision"><path class="cls-3" d="m325.32,509.92V243.2h45.82v266.72h-45.82Z"/><path class="cls-3" d="m544.48,509.92h-111.53V243.63h111.53c36.74,0,66.57,30.26,66.57,67v21.18c0,16.86-6.48,32.42-16.86,44.52,10.37,11.67,16.86,27.23,16.86,44.53v22.05c0,37.18-29.83,67-66.57,67Zm20.75-200.15c0-12.1-9.51-22.48-21.61-22.48h-64.84v67h64.84c12.1,0,21.61-9.51,21.61-21.61v-22.91Zm0,110.23c0-12.54-9.51-22.91-21.61-22.91h-64.84v69.17h64.84c12.1,0,21.61-9.94,21.61-22.48v-23.78Z"/><path class="cls-3" d="m673.73,509.92V243.2h45.82v266.72h-45.82Z"/><path class="cls-3" d="m888.57,374.61l66.57,135.3h-50.14l-41.07-87.32-40.63,87.32h-50.14l65.27-135.3-67-130.98h50.58l41.93,85.59,41.93-85.59h50.58l-67.87,130.98Z"/></g><rect class="cls-3" x="1050.3" y="210" width="50" height="333"/><g class="cls-6"><g class="cls-5"><path class="cls-3" d="m1568.1,323.4v-33.2c0-25.6-21.2-46.8-46.8-46.8h-33.2v33.6h30c9.2,0,16.4,7.2,16.4,16.4v30h33.6Zm0,93.2v-80h-33.6v80h33.6Zm-93.6-139.6v-33.6h-32.8c-25.6,0-46.8,21.2-46.8,46.8v33.2h32.8v-30c0-9.2,8-16.4,17.2-16.4,0,0,29.6,0,29.6,0Zm93.6,186v-33.2h-33.6v30c0,7.2-4,13.2-10.4,15.6-2,.8-4,.8-6,.8h-30v33.6h33.2c10.4,0,20.4-3.2,28-9.2,8.4-6,14.4-15.2,17.2-25.2,1.2-4,1.6-8,1.6-12.4m-200-139.6v-33.2c0-25.6-21.2-46.8-46.8-46.8h-33.2v33.6h30c9.2,0,16.8,7.2,16.8,16.4v30h33.2Zm60,13.2h-33.2v80h32.8c0-19.6.4-4.8.4-80m46.4,173.2v-33.6h-29.6c-2,0-4,0-6-.8-6.4-2.4-11.2-8.4-11.2-15.6v-30h-32.8v33.2c0,4.4.4,8.4,1.6,12.4,2.8,10,8.8,19.2,17.2,25.2,7.6,6,17.6,9.2,28,9.2h32.8Zm-199.6-232.8v-33.6h-80v80h33.6v-46.4h46.4Zm93.2,139.6v-10c0-2.4,0-4.4-.4-6.4-1.6-10.8-7.2-20.4-15.2-27.2,9.6-8,15.6-19.6,15.6-32.8v-3.6h-33.2v3.6c0,9.2-7.6,16.4-16.8,16.4h-30v33.6h30c6.8,0,12.8,4,15.2,10,.8,2,1.6,4,1.6,6.4v10h33.2Zm-93.2-26.4v-33.6h-46.4v-20h-33.6v80h33.6v-26.4h46.4Zm93.2,72.8v-33.2h-33.2v33.2c0,5.6-3.6,10.4-8.4,12.4-1.6.8-3.2.8-5.2.8h-33.2v33.6h33.2c10.4,0,20.4-3.2,28-9.2,8.4-6,14.4-15.2,17.2-25.2,1.2-4,1.6-8,1.6-12.4m-93.2,46.8v-33.6h-46.4v-46.4h-33.6v80h80Z"/></g></g><g id="ICON"><path class="cls-4" d="m32,297.8H13.8c-3.6,0-7.1,1.4-9.7,4S.1,307.9.1,311.5v54.8c0,2.5,2,4.6,4.6,4.6s4.6-2,4.6-4.6v-54.8c0-1.2.5-2.4,1.3-3.2.9-.9,2-1.3,3.2-1.3h18.2v96c0,7.6,6.1,13.7,13.7,13.7h177.6c3.6,0,7.1-1.4,9.7-4,2.6-2.6,4-6.1,4-9.7v-41.1c0-2.5-2-4.6-4.6-4.6s-4.6,2-4.6,4.6v41.1c0,1.2-.5,2.4-1.3,3.2-.9.9-2,1.3-3.2,1.3H45.7c-2.5,0-4.6-2-4.6-4.6v-146.2c0-2.5,2-4.6,4.6-4.6h177.6c2.5,0,4.6,2,4.6,4.6v86.8c0,2.5,2,4.6,4.6,4.6s4.6-2,4.6-4.6v-36.6h13.7c1.2,0,2.4.5,3.2,1.3.9.9,1.3,2,1.3,3.2v114.2H9.2v-41.1c0-2.5-2-4.6-4.6-4.6s-4.6,2-4.6,4.6v64c0,3.6,1.4,7.1,4,9.7,2.6,2.6,6,4,9.7,4h18.2c2.5,0,4.6-2,4.6-4.6s-2-4.6-4.6-4.6H13.8c-1.2,0-2.4-.5-3.2-1.3-.9-.9-1.3-2-1.3-3.2v-13.7h246v13.7c0,1.2-.5,2.4-1.3,3.2-.9.9-2,1.3-3.2,1.3H50.2c-2.5,0-4.6,2-4.6,4.6s2,4.6,4.6,4.6h57.4c-.7,12.3-3.9,28.1-15.6,36.6h-7.7c-2.5,0-4.6,2-4.6,4.6s2,4.6,4.6,4.6h95.7c2.5,0,4.6-2,4.6-4.6s-2-4.6-4.6-4.6h-7.7c-11.7-8.5-14.8-24.3-15.6-36.6h93.9c3.6,0,7.1-1.4,9.7-4s4-6.1,4-9.7v-137.1c0-3.6-1.4-7.1-4-9.7s-6-4-9.7-4h-13.7v-41c0-7.6-6.1-13.7-13.7-13.7H45.7c-7.5,0-13.7,6.1-13.7,13.7,0,0,0,41.1,0,41.1Zm115.7,164.5h-30.9c-.7,11.6-3.6,26-11.8,36.6h54.5c-8.3-10.6-11.1-25-11.8-36.6Zm-27.2-86.8h-4.2c-2.5,0-4.6,2-4.6,4.6s2,4.6,4.6,4.6h.8l-2.8,7.5c-.9,2.4.3,5,2.7,5.9,2.4.9,5-.3,5.9-2.7l4-10.7h10.8l4,10.7c.9,2.4,3.5,3.6,5.9,2.7,2.4-.9,3.5-3.5,2.7-5.9l-2.8-7.5h.8c2.5,0,4.6-2,4.6-4.6s-2-4.6-4.6-4.6h-4.2l-7.4-19.9c-.7-1.8-2.4-3-4.3-3s-3.6,1.2-4.3,3l-7.6,19.9h0Zm9.7,0h3.9l-2-5.3-1.9,5.3Zm-74.1-47.1l9.1,9.1c1.8,1.8,4.7,1.8,6.4,0l18.1-18.1c1.8-1.8,1.8-4.7,0-6.5s-4.7-1.8-6.4,0l-14.8,14.9-5.9-5.9c-1.8-1.8-4.7-1.8-6.4,0-1.9,1.9-1.9,4.8-.1,6.5h0Zm53.3,10.5h63.8c2.5,0,4.6-2,4.6-4.6s-2-4.6-4.6-4.6h-63.8c-2.5,0-4.6,2-4.6,4.6s2.1,4.6,4.6,4.6Zm0-18.3h95.7c2.5,0,4.6-2,4.6-4.6s-2-4.6-4.6-4.6h-95.7c-2.5,0-4.6,2-4.6,4.6s2.1,4.6,4.6,4.6Zm0-27.4h63.8c2.5,0,4.6-2,4.6-4.6s-2-4.6-4.6-4.6h-63.8c-2.5,0-4.6,2-4.6,4.6.1,2.6,2.1,4.6,4.6,4.6Zm-53.3-10.5l9.1,9.1c1.8,1.8,4.7,1.8,6.4,0l18.1-18.1c1.8-1.8,1.8-4.7,0-6.5s-4.7-1.8-6.4,0l-14.9,15-5.9-5.9c-1.8-1.8-4.7-1.8-6.4,0-1.8,1.8-1.8,4.7,0,6.4h0Zm53.3-7.8h95.7c2.5,0,4.6-2,4.6-4.6s-2-4.6-4.6-4.6h-95.7c-2.5,0-4.6,2-4.6,4.6s2.1,4.6,4.6,4.6Z"/></g><rect class="cls-2" x="959.3" y="243" width="94" height="100"/></svg>